HIERARCHY
ROOT Hips
{
  OFFSET -201.881 91.7065 -475.524
  CHANNELS 6 Xposition Yposition Zposition Zrotation Xrotation Yrotation
  JOINT RightUpLeg
  {
    OFFSET -8.9458 -8.66707 0.101652
    CHANNELS 3 Zrotation Xrotation Yrotation
    JOINT RightLeg
    {
      OFFSET 0 -44.4227 1.3727
      CHANNELS 3 Zrotation Xrotation Yrotation
      JOINT RightFoot
      {
        OFFSET 0.253549 -42.0924 -1.46059
        CHANNELS 3 Zrotation Xrotation Yrotation
        JOINT RightToes
        {
          OFFSET 0.04 -4.41509 8.4991
          CHANNELS 3 Zrotation Xrotation Yrotation
          End Site
          {
            OFFSET -0.08 -0.137448 9.77979
          }
        }
      }
    }
  }
  JOINT Spine
  {
    OFFSET 0 11.8905 0
    CHANNELS 3 Zrotation Xrotation Yrotation
    JOINT Spine1
    {
      OFFSET 0 25.6574 0.127663
      CHANNELS 3 Zrotation Xrotation Yrotation
      JOINT HEad
      {
        OFFSET 0 8.73416 0.011341
        CHANNELS 3 Zrotation Xrotation Yrotation
        End Site
        {
          OFFSET -0.29 12.7742 2.51395
        }
      }
      JOINT LeftShoulder1
      {
        OFFSET 8.99 -0.362252 -0.22
        CHANNELS 3 Zrotation Xrotation Yrotation
        JOINT LeftArm
        {
          OFFSET 10.2827 -0.00338 0.322123
          CHANNELS 3 Zrotation Xrotation Yrotation
          JOINT LeftForeArm
          {
            OFFSET 32.7669 0.099144 -1.42434
            CHANNELS 3 Zrotation Xrotation Yrotation
            JOINT LeftHand
            {
              OFFSET 27.5643 0.085362 1.02216
              CHANNELS 3 Zrotation Xrotation Yrotation
              End Site
              {
                OFFSET 16.7443 -0.6 1.50291
              }
            }
          }
        }
      }
      JOINT RightShoulder
      {
        OFFSET -8.99 -0.362252 -0.22
        CHANNELS 3 Zrotation Xrotation Yrotation
        JOINT RightArm
        {
          OFFSET -10.2827 -0.00338 0.322123
          CHANNELS 3 Zrotation Xrotation Yrotation
          JOINT RightForeArm
          {
            OFFSET -32.8971 0.099144 -1.42434
            CHANNELS 3 Zrotation Xrotation Yrotation
            JOINT RightHand
            {
              OFFSET -27.4921 0.085362 1.02216
              CHANNELS 3 Zrotation Xrotation Yrotation
              End Site
              {
                OFFSET -16.6312 -0.6 1.50291
              }
            }
          }
        }
      }
    }
  }
  JOINT LeftUpLeg
  {
    OFFSET 8.9458 -8.66707 0.101652
    CHANNELS 3 Zrotation Xrotation Yrotation
    JOINT LeftLeg
    {
      OFFSET 0 -44.4227 1.3727
      CHANNELS 3 Zrotation Xrotation Yrotation
      JOINT LeftFoot
      {
        OFFSET -0.253549 -42.0924 -1.46059
        CHANNELS 3 Zrotation Xrotation Yrotation
        JOINT LeftToes
        {
          OFFSET -0.04 -4.41509 8.4991
          CHANNELS 3 Zrotation Xrotation Yrotation
          End Site
          {
            OFFSET 0.08 -0.047448 9.77979
          }
        }
      }
    }
  }
}
MOTION
Frames:	7
Frame Time:	0.0166667
-206.271 94.2165 -480.548 1.9183 -14.0613 10.1204 -17.7995 -2.60595 11.0703 41.8589 27.1039 -51.3418 -28.8893 0.967604 -1.46136 0.0462048 0.000533403 0.662642 -5.39698 23.5086 -3.21204 -0.0132539 0.01051 -0.00168111 -0.350598 4.05217 13.5432 -1.09332e-015 -3.18055e-015 7.95139e-016 -114.831 -51.0077 -91.0033 -45.1922 52.015 -59.0035 18.5882 17.4777 -15.9332 19.5414 7.85322 -4.11136 103.043 -9.44339 72.1811 31.0705 55.0002 89.687 17.5696 20.4471 1.01449 27.5757 -14.9386 -23.4009 -35.8865 18.0839 78.3747 -14.372 -2.52297 -0.765259 -1.18446e-009 1.5602e-007 -4.87131e-009 
-205.655 93.8882 -479.744 1.69658 -14.2401 9.72222 -18.0554 -2.30958 11.447 42.3419 27.5023 -51.6257 -28.6002 1.18203 -1.46625 0.0462048 0.000533403 0.662642 -4.36576 22.762 -3.58789 -0.0132538 0.01393 -0.00168111 -0.942431 4.7766 13.1969 -1.78906e-015 0 -1.59028e-015 -114.488 -52.0574 -90.6328 -45.9564 51.9392 -58.5167 18.5298 17.6182 -16.1568 19.5749 8.41741 -3.93868 102.821 -9.58743 72.0853 31.0073 55.0389 89.5852 17.3478 20.5022 1.2894 27.6588 -15.9734 -23.9049 -34.6634 16.6912 76.4817 -6.9605 -2.34121 -0.749311 -1.18446e-009 1.5602e-007 -4.87132e-009 
-204.9 93.3914 -478.822 1.40117 -14.4416 9.26858 -18.4375 -2.11844 11.7985 43.1834 28.2442 -52.1113 -28.283 1.24256 -1.45813 0.0462048 0.000533403 0.662642 -2.95096 21.7464 -4.0335 -0.0132537 0.01692 -0.00168111 -1.73413 5.7245 12.901 2.98177e-016 1.59028e-015 7.95139e-016 -114.199 -53.243 -90.1359 -46.8675 51.9303 -57.9046 18.4724 17.7583 -16.3989 19.4316 9.1327 -3.78059 102.646 -9.69855 71.9657 30.8782 55.0744 89.4763 17.1352 20.5819 1.59458 28.3998 -15.7818 -24.6965 -32.2004 15.3018 72.9829 -19.5404 -3.04935 -1.12902 -1.18446e-009 1.5602e-007 -4.87132e-009 
-204.047 92.9475 -477.79 1.02413 -14.6548 8.75684 -18.7167 -1.81845 12.1295 43.7704 29.0115 -52.3071 -27.9381 1.51633 -1.47561 0.0462048 0.000533403 0.662642 -1.19811 20.5117 -4.51586 -0.0132537 0.0189941 -0.00168111 -2.68327 6.82619 12.6676 7.45443e-016 -7.95139e-016 -0 -113.982 -54.529 -89.5581 -47.9236 51.984 -57.1529 18.4911 17.7752 -16.5772 19.0751 9.9604 -3.65688 102.564 -9.73423 71.844 30.6793 55.1085 89.3609 17.0996 20.6766 1.78257 28.5232 -17.0767 -25.2072 -31.2035 14.8548 71.2051 -12.6716 -2.94981 -1.0845 -1.18446e-009 1.5602e-007 -4.87132e-009 
-203.015 92.351 -476.661 0.567954 -14.8592 8.19955 -19.1429 -1.64605 12.4342 44.699 30.076 -52.6721 -27.5719 1.63686 -1.47328 0.0462048 0.000533403 0.662642 0.830831 19.0951 -5.01862 -0.0132536 0.0205393 -0.00168111 -3.74493 8.02339 12.5096 2.98177e-016 7.95139e-016 -3.97569e-016 -113.818 -55.8816 -88.9061 -49.0966 52.0888 -56.2711 18.5214 17.7503 -16.7476 18.4881 10.8782 -3.57792 102.598 -9.66637 71.747 30.4181 55.1368 89.2351 17.1196 20.7733 1.92349 28.582 -18.5752 -26.6259 -30.2712 15.2537 70.9725 -16.3702 -3.22962 -1.21506 -1.18447e-009 1.5602e-007 -4.87132e-009 
-201.881 91.7065 -475.524 0.0456462 -15.0328 7.6109 -19.5978 -1.55437 12.6856 45.6837 31.269 -53.0016 -27.2386 1.76853 -1.46904 0.0462048 0.000533403 0.662642 2.80717 17.912 -5.41597 -0.0132536 0.02113 -0.00168111 -4.5884 8.91265 12.3727 2.48481e-017 0 -3.97569e-016 -113.873 -57.0951 -88.7449 -50.3448 52.2285 -55.2901 18.596 17.6497 -16.8684 17.9499 11.5211 -3.48439 102.727 -9.48561 71.6862 30.12 55.1571 89.1082 17.2545 20.8663 1.95565 28.1336 -20.7583 -28.737 -27.952 16.3785 70.5989 -21.0707 -3.41752 -1.52025 -1.18446e-009 1.5602e-007 -4.87131e-009 
-200.636 91.0683 -474.328 -0.526894 -15.1681 6.9985 -20.0599 -1.45936 12.9075 46.5691 32.4882 -53.1691 -26.9178 1.94296 -1.4779 0.0462048 0.000533403 0.662642 4.72453 16.9391 -5.73018 -0.0132536 0.0196701 -0.00168111 -5.22399 9.51468 12.2546 3.47873e-016 0 7.95139e-016 -114.138 -58.1681 -89.0142 -51.6141 52.395 -54.2596 18.6766 17.5521 -16.9785 17.4407 11.9282 -3.39262 102.934 -9.21136 71.6745 29.8134 55.167 88.9843 17.4051 20.9471 1.9479 27.4893 -22.9745 -30.7433 -26.6902 18.2552 71.1214 -20.5479 -3.32506 -1.5367 -1.18446e-009 1.5602e-007 -4.87131e-009 
